<svg width="512" height="512" viewBox="0 0 512 512" fill="none" xmlns="http://www.w3.org/2000/svg">
  <rect width="512" height="512" rx="128" fill="#121214"/>
  <path d="M256 78C171.5 78 103 146.5 103 231C103 337 256 434 256 434C256 434 409 337 409 231C409 146.5 340.5 78 256 78Z" fill="url(#g1)"/>
  <path d="M183 211C183 178.967 208.967 153 241 153H326C330.418 153 334 156.582 334 161V190C334 194.418 330.418 198 326 198H247C236.507 198 228 206.507 228 217V295C228 305.493 236.507 314 247 314H326C330.418 314 334 317.582 334 322V351C334 355.418 330.418 359 326 359H241C208.967 359 183 333.033 183 301V211Z" fill="white"/>
  <path d="M260 235C260 230.582 263.582 227 268 227H341C345.418 227 349 230.582 349 235V264C349 268.418 345.418 272 341 272H268C263.582 272 260 268.418 260 264V235Z" fill="#121214" fill-opacity="0.92"/>
  <path d="M260 294C260 289.582 263.582 286 268 286H341C345.418 286 349 289.582 349 294V323C349 327.418 345.418 331 341 331H268C263.582 331 260 327.418 260 323V294Z" fill="#121214" fill-opacity="0.92"/>
  <defs>
    <linearGradient id="g1" x1="103" y1="78" x2="409" y2="434" gradientUnits="userSpaceOnUse">
      <stop stop-color="#A78BFA"/>
      <stop offset="0.52" stop-color="#8B5CF6"/>
      <stop offset="1" stop-color="#22D3EE"/>
    </linearGradient>
  </defs>
</svg>
