<svg width="512" height="512" viewBox="0 0 512 512" fill="none" xmlns="http://www.w3.org/2000/svg">
  <rect width="512" height="512" rx="112" fill="#000000"/>
  <g filter="url(#glow)">
    <path d="M137 151C137 119.52 162.52 94 194 94H323C354.48 94 380 119.52 380 151V241C380 272.48 354.48 298 323 298H248L171 365V298H194C162.52 298 137 272.48 137 241V151Z" stroke="url(#paint0_linear)" stroke-width="28" stroke-linecap="round" stroke-linejoin="round"/>
    <path d="M347 142L253 274H317L268 374L389 224H323L347 142Z" fill="url(#paint1_linear)"/>
    <path d="M202 161H297" stroke="white" stroke-width="18" stroke-linecap="round"/>
    <path d="M202 213H278" stroke="white" stroke-width="18" stroke-linecap="round"/>
    <path d="M202 265H244" stroke="white" stroke-width="18" stroke-linecap="round"/>
  </g>
  <defs>
    <filter id="glow" x="90" y="50" width="330" height="380" filterUnits="userSpaceOnUse" color-interpolation-filters="sRGB">
      <feFlood flood-opacity="0" result="BackgroundImageFix"/>
      <feColorMatrix in="SourceAlpha" type="matrix" values="0 0 0 0 0 0 0 0 0 0 0 0 0 0 0 0 0 0 127 0" result="hardAlpha"/>
      <feOffset dy="8"/>
      <feGaussianBlur stdDeviation="18"/>
      <feComposite in2="hardAlpha" operator="out"/>
      <feColorMatrix type="matrix" values="0 0 0 0 0.486 0 0 0 0 0.227 0 0 0 0 0.929 0 0 0 0.65 0"/>
      <feBlend mode="normal" in2="BackgroundImageFix" result="effect1_dropShadow"/>
      <feBlend mode="normal" in="SourceGraphic" in2="effect1_dropShadow" result="shape"/>
    </filter>
    <linearGradient id="paint0_linear" x1="148" y1="103" x2="380" y2="330" gradientUnits="userSpaceOnUse">
      <stop stop-color="#D946EF"/>
      <stop offset="0.45" stop-color="#8B5CF6"/>
      <stop offset="1" stop-color="#6D28D9"/>
    </linearGradient>
    <linearGradient id="paint1_linear" x1="253" y1="142" x2="397" y2="358" gradientUnits="userSpaceOnUse">
      <stop stop-color="#F0ABFC"/>
      <stop offset="0.45" stop-color="#A855F7"/>
      <stop offset="1" stop-color="#6D28D9"/>
    </linearGradient>
  </defs>
</svg>
